PathFileType	4	(X/Y/Z)	/Users/mathieubourgeois/Desktop/Analyse/Traitement/Sujet_03/Data/Transformed_Sujet_03_velo_60.trc
DataRate	CameraRate	NumFrames	NumMarkers	Units	OrigDataRate	OrigDataStartFrame	OrigNumFrames
120.000000	120.000000	5	36	mm	120.000000	463	1854
Frame#	Time	RFHD			LFHD			RBHD			LBHD			C7			CLAV			RSHO			LSHO			STRN			T10			RBWT			LBWT			RFWT			LFWT			RKNI			LKNI			RKNE			LKNE			LANI			RANI			LANE			RANE			LTOE			RTOE			LHEE			RHEE			RHUM			LHUM			RRAD			LRAD			RWRA			RWRB			LWRA			LWRB			LCAR			RCAR			
		X1	Y1	Z1	X2	Y2	Z2	X3	Y3	Z3	X4	Y4	Z4	X5	Y5	Z5	X6	Y6	Z6	X7	Y7	Z7	X8	Y8	Z8	X9	Y9	Z9	X10	Y10	Z10	X11	Y11	Z11	X12	Y12	Z12	X13	Y13	Z13	X14	Y14	Z14	X15	Y15	Z15	X16	Y16	Z16	X17	Y17	Z17	X18	Y18	Z18	X19	Y19	Z19	X20	Y20	Z20	X21	Y21	Z21	X22	Y22	Z22	X23	Y23	Z23	X24	Y24	Z24	X25	Y25	Z25	X26	Y26	Z26	X27	Y27	Z27	X28	Y28	Z28	X29	Y29	Z29	X30	Y30	Z30	X31	Y31	Z31	X32	Y32	Z32	X33	Y33	Z33	X34	Y34	Z34	X35	Y35	Z35	X36	Y36	Z36	

464	3.858333333333333	149.0193481445312	1555.217895507812	119.9726181030273	131.5879821777344	1554.578369140625	-32.55995559692391	44.32292175292967	1635.646118164062	135.2036895751952	20.02195739746094	1651.995971679688	-11.60150146484385	-114.4228439331055	1563.14501953125	58.61600494384755	-76.20610046386719	1409.603759765625	54.14885711669913	-56.73844528198245	1479.707397460938	235.1759338378905	-80.23185729980467	1508.114013671875	-134.3004455566407	-170.5673828125	1270.233520507812	49.09821319580068	-332.299072265625	1458.479248046875	57.00013351440416	-521.9824829101562	1259.026123046875	126.4567413330077	-526.8131103515625	1259.800048828125	2.51010489463792	-367.9004821777344	1190.381591796875	181.5317535400389	-374.8197326660156	1180.771606445312	-62.12458419799816	-40.90694427490236	840.8536376953125	123.1083374023437	-141.6443328857422	734.7095947265625	-70.71701812744146	-62.88957977294925	884.1080322265625	236.1521301269531	-146.4935760498047	780.1857299804688	-180.2084503173829	-412.0564575195312	473.1760559082031	-49.11214065551766	-136.2116088867188	480.1833190917969	118.9634552001953	-441.9368896484375	456.8240356445312	-135.0144805908204	-162.5896301269532	461.6213684082031	207.2037658691406	-315.0619812011719	292.9467468261719	-84.08844757080084	25.6992778778076	358.8632202148438	148.1314697265625	-508.7578735351562	477.8394165039062	-88.79195404052743	-233.3783416748047	440.0098266601562	159.085220336914	29.79721832275388	1190.1865234375	227.3068237304687	9.186864852905289	1200.10107421875	-134.6677398681641	81.6237869262695	1212.155639648438	285.1260986328124	56.69939422607424	1232.933227539062	-193.0948944091798	293.3191223144531	1049.113403320312	210.5803985595703	269.7561340332031	1034.28125	288.3377685546875	247.8730773925782	1060.118286132812	-125.2345046997071	221.7513275146485	1045.7568359375	-200.0290222167969	319.4175109863281	1033.168823242188	-223.1103820800782	370.2438659667968	1011.434326171875	304.9957885742188	
465	3.866666666666667	149.227554321289	1555.390869140625	119.4163131713866	131.8407135009766	1554.679321289062	-33.06482315063484	44.50082778930663	1635.778076171875	134.6012420654296	20.21917533874512	1652.07080078125	-12.2312765121461	-114.1604919433594	1563.200805664062	58.03974533081044	-75.92030334472656	1409.694580078125	53.58416366577139	-56.38373184204104	1479.80712890625	234.5946502685546	-80.08143615722655	1508.1318359375	-134.8130645751954	-170.2027130126953	1270.297119140625	48.64094161987295	-332.0459594726562	1458.51611328125	56.58157730102526	-521.6267700195312	1259.029907226562	126.4407882690428	-526.58056640625	1259.842895507812	2.501905441284038	-367.6255798339844	1190.311767578125	181.4430847167967	-374.5854187011719	1180.880615234375	-62.12113189697277	-44.97132873535158	832.2020874023438	122.8354339599609	-137.6923828125	739.2379760742188	-71.22402191162115	-66.74661254882815	875.6580810546875	235.9755401611328	-142.0694274902343	785.022705078125	-181.0192871093751	-411.5518798828125	482.6536254882812	-49.14391708374031	-135.4420166015625	470.023193359375	118.2150726318359	-441.6172485351562	466.4863586425781	-135.0459442138673	-161.6999816894532	451.4719543457031	206.4815673828124	-316.0914306640625	301.9725646972656	-83.88066864013678	27.22291564941404	348.5316772460938	147.7843627929687	-508.6764526367188	487.5934448242188	-88.88803863525399	-232.5194396972657	430.1321411132812	158.9568481445312	30.00753974914548	1190.260864257812	226.8780212402343	9.287487983703629	1200.077514648438	-135.0318756103516	81.78582000732419	1212.234741210938	284.7677001953124	57.58733367919924	1232.708618164062	-193.3892822265626	293.4177856445312	1048.992553710938	210.6182098388672	269.8218383789062	1034.273315429688	288.3656616210938	247.962890625	1060.127563476562	-125.1751327514649	221.8995361328125	1045.68017578125	-199.9733123779297	319.5477600097656	1033.125	-223.0035247802735	370.3002319335937	1011.3994140625	305.1304321289062	
466	3.875	149.4398803710937	1555.577514648438	118.8605728149413	132.1164703369141	1554.787841796875	-33.65954208374031	44.71590042114256	1635.934692382812	133.9703521728514	20.45880317687988	1652.136108398438	-12.89330673217783	-113.9098129272461	1563.265869140625	57.45019149780263	-75.70611572265625	1409.7626953125	53.0510711669921	-56.10820007324222	1479.933837890625	234.0633392333984	-79.90797424316405	1508.205078125	-135.410385131836	-169.8256988525391	1270.360229492188	48.17593002319326	-331.7656860351562	1458.560668945312	56.14284515380846	-521.2353515625	1259.061157226562	126.4510955810546	-526.3005981445312	1259.887329101562	2.498878002166606	-367.3315124511719	1190.19384765625	181.3394775390624	-374.3135070800781	1180.992309570312	-62.11853408813488	-49.2745704650879	823.5474853515625	122.521987915039	-132.1287384033203	744.873779296875	-72.24440765380865	-70.95892333984378	867.087646484375	235.7713165283203	-137.49462890625	789.9940795898438	-181.8003845214845	-410.6814270019531	492.239013671875	-49.27180099487313	-135.0138702392578	459.8795471191406	117.394546508789	-440.8802795410156	476.2237548828125	-135.0100250244141	-161.25634765625	441.286865234375	205.6510314941406	-316.5608520507812	311.11376953125	-83.66016387939459	28.23510360717772	338.1070556640625	147.4280853271484	-507.8829345703125	497.955810546875	-88.98329925537118	-231.5203247070313	419.1778259277344	157.6815795898437	30.22334861755368	1190.333740234375	226.5075073242187	9.380458831787125	1200.118530273438	-135.356918334961	81.97308349609372	1212.33349609375	284.4226379394531	57.75173187255862	1232.693115234375	-193.7275390625001	293.5356140136719	1048.867553710938	210.6309204101562	269.8960876464843	1034.277221679688	288.427001953125	248.0593566894532	1060.139892578125	-125.1259765625	222.0758361816407	1045.617919921875	-199.9100189208985	319.6805419921875	1033.09326171875	-222.8931732177735	370.3554077148437	1011.359069824219	305.265625	
467	3.883333333333333	149.706069946289	1555.755981445312	118.2786102294921	132.4001770019531	1554.873168945312	-34.25331878662117	44.90795135498045	1636.06591796875	133.3239288330077	20.71816253662109	1652.19775390625	-13.56425189971934	-113.61767578125	1563.329223632812	56.83954238891591	-75.38980102539062	1409.852783203125	52.40913772582999	-55.72085952758792	1480.074340820312	233.4154815673827	-79.67417144775389	1508.262939453125	-135.950897216797	-169.4872436523438	1270.44287109375	47.74945831298818	-331.4868774414062	1458.595825195312	55.69771194457994	-520.8466796875	1259.12548828125	126.4642410278319	-526.0347290039062	1259.935668945312	2.501866579055644	-367.0333557128906	1190.091674804688	181.1990966796874	-374.0488586425781	1181.0673828125	-62.12934875488293	-54.08010482788087	814.7178955078125	122.1746139526367	-127.44287109375	750.3648681640625	-72.95413208007818	-75.46287536621097	858.4766235351562	235.5633697509765	-132.8687896728515	795.2023315429688	-182.4876556396485	-409.34375	501.80810546875	-49.51525878906258	-135.0303039550782	449.7799072265625	116.5465316772461	-439.8044738769531	485.9659423828125	-134.9851989746095	-161.324203491211	431.14892578125	204.7270812988281	-316.5271301269531	320.3496398925781	-83.50979614257818	28.64740180969237	327.63427734375	147.158203125	-506.6702880859375	508.4969482421875	-88.44982147216805	-231.3186798095703	408.6285705566406	156.6802520751953	30.46104049682614	1190.431640625	226.1298065185546	9.491428375244157	1200.157470703125	-135.6613311767579	82.18424224853513	1212.452392578125	284.1110229492187	57.91223907470705	1232.64990234375	-194.0235900878907	293.6480102539062	1048.7294921875	210.6825714111328	269.9601440429687	1034.264892578125	288.4811706542969	248.1724548339844	1060.14990234375	-125.0748443603516	222.2071990966797	1045.552001953125	-199.8557739257813	319.8059692382812	1033.04150390625	-222.7903137207032	370.4176330566406	1011.311828613281	305.3967895507812	
468	3.891666666666667	149.9758605957031	1555.9375	117.6951446533202	132.7572021484375	1554.97998046875	-34.84307861328133	45.14164733886717	1636.207641601562	132.6241302490233	21.00989532470703	1652.26171875	-14.26079177856455	-113.3486404418945	1563.425537109375	56.17926788330067	-75.08716583251953	1409.944213867188	51.86846542358389	-55.43904495239261	1480.232421875	232.7668151855468	-79.47934722900389	1508.317504882812	-136.5552673339845	-169.0804748535156	1270.534057617188	47.18825149536123	-331.1603698730469	1458.611206054688	55.2284011840819	-520.4103393554688	1259.153442382812	126.4776611328124	-525.761962890625	1259.976440429688	2.51685309410081	-366.7466430664062	1189.997924804688	181.1647796630858	-373.778564453125	1181.175537109375	-62.16206359863293	-59.1068572998047	805.9013061523438	121.8010864257812	-122.6492309570312	756.1171264648438	-73.52038574218756	-80.29106903076175	849.7859497070312	235.3149871826171	-128.1805267333984	800.5935668945312	-183.1431121826173	-407.4425659179688	511.0946960449219	-49.76535034179695	-135.4755554199219	439.8025512695312	115.6406707763671	-438.2653198242188	495.6223754882812	-134.9258575439454	-162.0181732177735	421.1662292480469	203.8488616943359	-315.9171447753906	329.661376953125	-83.31408691406256	28.519229888916	317.2740478515625	146.853042602539	-505.1224670410156	518.7057495117188	-88.49808502197274	-231.958251953125	398.9806213378906	156.7022247314453	30.68705177307126	1190.508666992188	225.8041687011718	9.608721733093278	1200.164916992188	-136.0374145507813	82.37648010253903	1212.563354492188	283.7963256835937	57.31859970092776	1232.769897460938	-194.3785247802735	293.7926025390625	1048.599609375	210.7205352783203	270.0275268554687	1034.2626953125	288.520263671875	248.2768096923828	1060.156982421875	-125.0292282104493	222.3380126953125	1045.480224609375	-199.8313598632813	319.9326171875	1032.98095703125	-222.6943359375	370.4795227050781	1011.278137207031	305.5053405761719	
